Coordinates
version=1
nRows=14
nColumns=40
inDegrees=yes

Units are S.I. units (second, meters, Newtons, ...)
Angles are in degrees.

endheader
time	pelvis_tilt	pelvis_list	pelvis_rotation	pelvis_tx	pelvis_ty	pelvis_tz	hip_flexion_r	hip_adduction_r	hip_rotation_r	knee_angle_r	knee_angle_r_beta	ankle_angle_r	subtalar_angle_r	mtp_angle_r	hip_flexion_l	hip_adduction_l	hip_rotation_l	knee_angle_l	knee_angle_l_beta	ankle_angle_l	subtalar_angle_l	mtp_angle_l	lumbar_extension	lumbar_bending	lumbar_rotation	arm_flex_r	arm_add_r	arm_rot_r	elbow_flex_r	pro_sup_r	wrist_flex_r	wrist_dev_r	arm_flex_l	arm_add_l	arm_rot_l	elbow_flex_l	pro_sup_l	wrist_flex_l	wrist_dev_l
      1.01500000	     -2.61031456	     -6.65029633	     -1.01162334	      0.82565046	      0.92145031	      0.46365149	     19.14634118	      5.15262278	    -14.24763245	     18.48637171	     18.48637171	      4.34995542	     -1.80345179	     -6.35379118	      9.33768989	    -13.16589832	     -5.03557760	     49.13633932	     49.13633932	     13.14890333	    -17.92682727	      1.73148236	     -7.95008293	      8.21281037	      2.26139332	     -0.33821898	    -11.77052577	     -7.38129242	     26.48186070	     46.42000919	      0.00000000	      0.00000000	     14.97307499	    -10.74621883	     -6.30941421	     63.86189663	     47.03626932	      0.00000000	      0.00000000
      1.02714286	     -2.49169609	     -6.71109405	     -0.69887937	      0.82585295	      0.92250395	      0.46531415	     18.29433805	      5.28537637	    -14.61443385	     18.13990806	     18.13990806	      4.75051524	     -1.37129118	     -6.66246172	     11.28888647	    -13.48421051	     -4.06469452	     52.77243368	     52.77243368	     12.59540490	    -18.23534556	      4.82972418	     -8.00570757	      8.27797216	      2.47505712	      1.27498094	    -12.07203324	     -6.93664529	     27.21314683	     46.36970188	      0.00000000	      0.00000000	     14.77834608	    -10.14735245	     -5.78753425	     60.60635798	     46.96726347	      0.00000000	      0.00000000
      1.03928571	     -2.39368119	     -6.77775379	     -0.38022937	      0.82585814	      0.92343236	      0.46680705	     17.47249246	      5.42836784	    -14.96219920	     17.77656315	     17.77656315	      5.09962336	     -0.97806849	     -6.92994584	     13.25963177	    -13.75159664	     -3.14369034	     56.10664675	     56.10664675	     12.35416259	    -18.42092347	      8.12809911	     -8.05558388	      8.36284789	      2.64610753	      2.84746105	    -12.42597315	     -6.56221073	     28.25634598	     46.31006601	      0.00000000	      0.00000000	     14.45979262	     -9.68021547	     -5.03991016	     57.57625538	     46.87839420	      0.00000000	      0.00000000
      1.05142857	     -2.28124536	     -6.92634124	     -0.05493383	      0.82569511	      0.92421641	      0.46825185	     16.66653135	      5.67529301	    -15.23779654	     17.43924929	     17.43924929	      5.41674565	     -0.76017568	     -7.00457947	     15.09604340	    -14.16184908	     -2.42498989	     58.89307752	     58.89307752	     11.45561069	    -18.69798350	      8.54670551	     -8.20539879	      8.49611501	      2.69107836	      4.66174592	    -12.76250781	     -6.57241281	     29.08846915	     46.29146193	      0.00000000	      0.00000000	     13.45670382	     -9.27720977	     -4.66985740	     56.27925249	     46.82402719	      0.00000000	      0.00000000
      1.06357143	     -2.25025323	     -6.91743205	      0.26152074	      0.82530503	      0.92498822	      0.46937873	     15.92500011	      5.70879076	    -15.69599478	     17.04507179	     17.04507179	      5.71663677	     -0.17785102	     -7.28477733	     17.07092217	    -14.19423259	     -1.59340917	     61.46628657	     61.46628657	     12.12639127	    -18.74410789	     12.62699255	     -8.15010227	      8.54522325	      3.06110511	      6.23522687	    -13.23882092	     -5.96902535	     30.02308849	     46.21981989	      0.00000000	      0.00000000	     13.82849270	     -8.70207291	     -3.58283579	     51.26013732	     46.68021899	      0.00000000	      0.00000000
      1.07571429	     -2.21128740	     -6.98801416	      0.56964167	      0.82481563	      0.92565946	      0.47049259	     15.21434500	      5.85980537	    -15.99730535	     16.69047453	     16.69047453	      6.02259576	      0.15790996	     -7.33737815	     18.90862167	    -14.38528168	     -0.99910966	     63.45954898	     63.45954898	     12.29151493	    -18.84675119	     14.41680654	     -8.17474233	      8.65061049	      3.33073465	      7.77407418	    -13.73950441	     -5.60936946	     31.23573613	     46.15358518	      0.00000000	      0.00000000	     13.48917261	     -8.27149386	     -2.63546838	     48.17903059	     46.55779614	      0.00000000	      0.00000000
      1.08785714	     -2.06438053	     -6.90130149	      0.76456561	      0.82428091	      0.92654330	      0.47168303	     14.47004844	      5.86949392	    -16.03601085	     16.50112024	     16.50112024	      6.33438069	      0.24924756	     -7.36737945	     20.35463457	    -14.49950837	     -0.81591810	     64.72676865	     64.72676865	     12.11852577	    -18.99360469	     14.32723285	     -8.42377609	      8.48630864	      3.79681214	      9.50368790	    -14.19455237	     -5.66761687	     31.94625459	     46.14262481	      0.00000000	      0.00000000	     12.48789972	     -7.73919634	     -2.38079873	     47.44862044	     46.51478253	      0.00000000	      0.00000000
      1.10000000	     -2.15469915	     -7.15702146	      1.16599323	      0.82348510	      0.92702913	      0.47263695	     13.80875005	      6.23677864	    -16.51076360	     15.89451322	     15.89451322	      6.47915273	      0.65429106	     -7.29249927	     22.24611969	    -14.83831908	     -0.25227185	     65.74495833	     65.74495833	     12.29165535	    -19.04041436	     14.69551191	     -8.28197331	      8.82638170	      3.05373825	     11.73473627	    -14.21917416	     -5.63883819	     33.09385756	     46.11017961	      0.00000000	      0.00000000	     11.33346119	     -7.84588263	     -1.86458427	     44.87410775	     46.42901690	      0.00000000	      0.00000000
      1.11214286	     -2.04137854	     -7.05032032	      1.45481540	      0.82278385	      0.92802984	      0.47348150	     12.97224984	      6.21447402	    -16.81409728	     15.43360468	     15.43360468	      6.71861781	      1.12406737	     -7.20479425	     23.59123618	    -14.78315158	     -0.08681416	     66.04834398	     66.04834398	     12.77405990	    -19.09408703	     15.54765147	     -8.36807470	      8.69727306	      2.96996263	     13.77909317	    -14.39897034	     -5.38858369	     33.86610008	     46.07725435	      0.00000000	      0.00000000	     10.86886663	     -7.61350175	     -1.08876411	     41.45712249	     46.31737973	      0.00000000	      0.00000000
      1.12428571	     -2.02398323	     -6.92407601	      1.62078323	      0.82191332	      0.92882903	      0.47437767	     12.37916646	      6.18088905	    -16.82307395	     15.21595042	     15.21595042	      7.01967149	      1.25733252	     -7.21560805	     24.88112037	    -14.77084148	     -0.17642739	     65.80265987	     65.80265987	     13.03013451	    -19.13739722	     15.67241474	     -8.46807712	      8.55851410	      3.53873259	     15.46017750	    -15.00069712	     -5.42897525	     34.48229315	     46.06813061	      0.00000000	      0.00000000	      9.91162536	     -7.12217011	     -0.80088826	     40.36581945	     46.26696538	      0.00000000	      0.00000000
      1.13642857	     -1.97465338	     -6.83965360	      1.90196435	      0.82105699	      0.92979233	      0.47507801	     11.58807587	      6.17273187	    -17.23757208	     14.69849066	     14.69849066	      7.35269344	      2.01636781	     -6.83317947	     26.08075308	    -14.67189047	     -0.13168501	     65.13270007	     65.13270007	     13.80204367	    -19.15331616	     17.20633211	     -8.44124654	      8.49301816	      3.80073723	     17.22621738	    -15.36962095	     -4.90464958	     35.08887452	     46.02049104	      0.00000000	      0.00000000	     10.43513422	     -6.72482756	      0.70835942	     34.51538854	     46.06575720	      0.00000000	      0.00000000
      1.14857143	     -1.91474127	     -6.72705990	      2.14439110	      0.82019992	      0.93071518	      0.47575884	     10.80965641	      6.19133987	    -17.29238475	     14.19912618	     14.19912618	      7.57833110	      2.19099337	     -6.67580552	     27.04813525	    -14.60071659	     -0.30972302	     63.87799971	     63.87799971	     14.05590080	    -19.17115108	     17.38810621	     -8.55235744	      8.35530877	      3.70057480	     19.08223224	    -15.51401073	     -5.01577335	     36.20864473	     45.99462123	      0.00000000	      0.00000000	      9.21545203	     -6.64480805	      1.02106003	     33.19369572	     46.00189655	      0.00000000	      0.00000000
      1.16071429	     -1.87103134	     -6.59536792	      2.37672265	      0.81931621	      0.93156261	      0.47632037	     10.04240724	      6.18158814	    -17.40702171	     13.68655165	     13.68655165	      7.80231792	      2.45058182	     -6.52473809	     27.86523013	    -14.49575075	     -0.59587446	     62.15392273	     62.15392273	     14.30343751	    -19.19564379	     17.66684452	     -8.62009184	      8.22151328	      3.66374622	     20.89801653	    -15.65906875	     -5.11013484	     37.23573851	     45.97096657	      0.00000000	      0.00000000	      8.09108582	     -6.55448289	      1.38066148	     31.67583092	     45.93233328	      0.00000000	      0.00000000
      1.17285714	     -1.85291759	     -6.49986811	      2.60869565	      0.81838858	      0.93224687	      0.47676644	      9.31330261	      6.20094774	    -17.53784942	     13.18734807	     13.18734807	      8.04154396	      2.72990841	     -6.37785973	     28.58565435	    -14.37853191	     -0.88246223	     60.06183282	     60.06183282	     14.52080668	    -19.22097944	     18.02420921	     -8.67202854	      8.13049223	      3.68477012	     22.64649667	    -15.85680109	     -5.21966047	     38.24209951	     45.94811180	      0.00000000	      0.00000000	      7.03407341	     -6.44156335	      1.79003309	     30.05559836	     45.85545349	      0.00000000	      0.00000000
